<?xml version="1.0" standalone="no"?>
<!DOCTYPE svg PUBLIC "-//W3C//DTD SVG 20010904//EN"
 "http://www.w3.org/TR/2001/REC-SVG-20010904/DTD/svg10.dtd">
<svg version="1.0" xmlns="http://www.w3.org/2000/svg"
 width="280.000000pt" height="104.000000pt" viewBox="0 0 280.000000 104.000000"
 preserveAspectRatio="xMidYMid meet">

<g transform="translate(0.000000,104.000000) scale(0.100000,-0.100000)"
fill="#000000" stroke="none">
<path d="M1090 869 c-41 -17 -70 -51 -76 -91 -6 -34 -10 -38 -35 -38 -27 0
-29 -3 -29 -40 0 -38 2 -40 30 -40 l30 0 0 -170 0 -170 55 0 55 0 0 170 0 170
35 0 c34 0 35 1 35 40 0 39 -1 40 -35 40 -19 0 -35 4 -35 9 0 16 31 41 51 41
16 0 19 7 19 45 l0 45 -37 -1 c-21 0 -49 -5 -63 -10z"/>
<path d="M1220 600 l0 -280 60 0 60 0 0 68 c0 59 3 72 23 90 l23 22 44 -90 44
-90 64 0 63 0 -68 129 -68 129 73 81 74 81 -70 0 -70 0 -63 -74 -64 -74 -3
144 -3 144 -59 0 -60 0 0 -280z"/>
<path d="M2170 784 l-95 -95 93 -87 c51 -48 92 -92 92 -99 0 -6 -42 -50 -92
-97 l-93 -85 95 -96 95 -95 188 188 187 187 -188 188 -187 187 -95 -96z"/>
<path d="M245 726 c-48 -21 -70 -53 -70 -101 0 -63 38 -100 130 -126 108 -31
117 -36 113 -62 -7 -48 -128 -45 -143 4 -5 16 -16 19 -61 19 -62 0 -68 -12
-34 -68 28 -46 89 -72 169 -72 111 0 181 51 181 133 0 58 -32 85 -146 121 -72
24 -100 37 -102 51 -5 23 14 35 60 35 34 0 68 -20 68 -41 0 -5 25 -9 56 -9 53
0 55 1 48 23 -25 81 -66 107 -171 107 -37 -1 -81 -7 -98 -14z"/>
<path d="M647 719 c-54 -29 -90 -88 -95 -160 -6 -84 4 -125 44 -169 94 -104
274 -87 334 30 60 117 14 269 -93 309 -47 18 -147 13 -190 -10z m167 -92 c51
-51 41 -173 -16 -203 -45 -23 -94 -11 -119 29 -31 49 -23 141 15 174 36 31 89
31 120 0z"/>
<path d="M1694 726 c-41 -18 -74 -62 -74 -97 0 -28 2 -29 48 -29 42 0 50 3 60
25 13 29 50 41 89 28 30 -10 41 -36 24 -57 -6 -7 -45 -19 -87 -25 -59 -10 -83
-19 -109 -42 -63 -56 -55 -158 15 -194 40 -21 118 -19 163 4 36 18 37 18 37 0
0 -16 8 -19 50 -19 l50 0 0 163 c0 179 -5 198 -59 234 -28 19 -47 23 -105 23
-39 -1 -85 -7 -102 -14z m156 -247 c-10 -52 -27 -69 -78 -76 -34 -5 -42 -2
-52 16 -20 38 -4 59 63 80 34 10 65 20 68 20 4 1 3 -17 -1 -40z"/>
<path d="M1373 200 c0 -36 2 -50 4 -32 2 17 2 47 0 65 -2 17 -4 3 -4 -33z"/>
<path d="M1412 253 c13 -3 18 -18 21 -61 l3 -57 2 57 c2 44 6 58 20 61 9 3 -1
5 -23 5 -22 0 -32 -2 -23 -5z"/>
<path d="M711 214 c0 -11 3 -14 6 -6 3 7 2 16 -1 19 -3 4 -6 -2 -5 -13z"/>
<path d="M750 221 c0 -5 5 -13 10 -16 6 -3 10 -2 10 4 0 5 -4 13 -10 16 -5 3
-10 2 -10 -4z"/>
<path d="M837 223 c-3 -5 5 -8 18 -8 13 0 21 3 18 8 -2 4 -10 7 -18 7 -8 0
-16 -3 -18 -7z"/>
<path d="M987 223 c6 -4 13 -26 16 -48 4 -40 4 -40 3 4 -1 30 -6 46 -16 48
-10 3 -11 2 -3 -4z"/>
<path d="M1028 223 c7 -3 16 -2 19 1 4 3 -2 6 -13 5 -11 0 -14 -3 -6 -6z"/>
<path d="M1108 223 c7 -3 16 -2 19 1 4 3 -2 6 -13 5 -11 0 -14 -3 -6 -6z"/>
<path d="M1273 224 c9 -3 17 -12 17 -20 0 -17 -36 -19 -43 -1 -3 6 -6 -2 -6
-18 -1 -31 14 -55 34 -55 5 0 2 5 -7 11 -27 15 -22 39 8 39 21 0 25 4 22 22
-2 14 -11 24 -23 25 -16 1 -16 1 -2 -3z"/>
<path d="M1547 224 c-14 -14 -7 -32 18 -48 14 -9 25 -12 25 -7 0 5 -9 13 -20
16 -11 3 -20 13 -20 21 0 16 26 19 33 4 3 -6 4 -5 3 2 -3 15 -28 22 -39 12z"/>
<path d="M1663 223 c-8 -3 -12 -21 -12 -46 l2 -42 6 40 c9 57 38 61 44 6 l4
-41 -1 42 c-1 43 -13 54 -43 41z"/>
<path d="M1720 226 c0 -2 7 -6 15 -10 8 -3 15 -1 15 4 0 6 -7 10 -15 10 -8 0
-15 -2 -15 -4z"/>
<path d="M1782 161 l1 -66 6 60 c5 46 10 61 24 63 14 3 17 -4 17 -37 0 -23 -5
-41 -12 -44 -8 -2 -7 -3 2 -3 11 1 15 13 15 46 0 42 -2 45 -27 46 -28 1 -28 1
-26 -65z"/>
<path d="M1928 223 c7 -3 16 -2 19 1 4 3 -2 6 -13 5 -11 0 -14 -3 -6 -6z"/>
<path d="M1053 175 c0 -22 2 -30 4 -17 2 12 2 30 0 40 -3 9 -5 -1 -4 -23z"/>
<path d="M1123 195 c-9 -10 -9 -15 -1 -17 17 -6 2 -38 -18 -38 -12 0 -15 6
-11 21 4 16 3 19 -5 11 -18 -18 -1 -42 27 -40 22 2 25 7 25 40 0 42 0 43 -17
23z"/>
<path d="M1901 185 c-1 -31 14 -55 34 -55 5 0 2 5 -7 11 -27 15 -22 39 7 39
17 0 25 5 24 18 0 10 -3 12 -6 5 -2 -7 -13 -13 -23 -13 -10 0 -21 6 -23 13 -3
6 -6 -2 -6 -18z"/>
<path d="M791 184 c0 -11 3 -14 6 -6 3 7 2 16 -1 19 -3 4 -6 -2 -5 -13z"/>
<path d="M1180 185 c-11 -13 -10 -14 4 -9 9 3 16 10 16 15 0 13 -6 11 -20 -6z"/>
<path d="M843 183 c9 -2 23 -2 30 0 6 3 -1 5 -18 5 -16 0 -22 -2 -12 -5z"/>
<path d="M721 170 c0 -8 4 -22 9 -30 12 -18 12 -2 0 25 -6 13 -9 15 -9 5z"/>
<path d="M770 165 c0 -5 5 -17 10 -25 5 -8 10 -10 10 -5 0 6 -5 17 -10 25 -5
8 -10 11 -10 5z"/>
<path d="M1206 157 c3 -10 9 -15 12 -12 3 3 0 11 -7 18 -10 9 -11 8 -5 -6z"/>
<path d="M837 138 c2 -5 10 -8 18 -8 8 0 16 3 18 8 3 4 -5 7 -18 7 -13 0 -21
-3 -18 -7z"/>
<path d="M1547 138 c2 -5 10 -8 18 -8 8 0 16 3 18 8 3 4 -5 7 -18 7 -13 0 -21
-3 -18 -7z"/>
</g>
</svg>
