<?xml version="1.0" standalone="no"?>
<!DOCTYPE svg PUBLIC "-//W3C//DTD SVG 20010904//EN"
 "http://www.w3.org/TR/2001/REC-SVG-20010904/DTD/svg10.dtd">
<svg version="1.0" xmlns="http://www.w3.org/2000/svg"
 width="69.000000pt" height="91.000000pt" viewBox="0 0 69.000000 91.000000"
 preserveAspectRatio="xMidYMid meet">

<g transform="translate(0.000000,91.000000) scale(0.100000,-0.100000)"
fill="#000000" stroke="none">
<path d="M184 727 c-73 -73 -91 -98 -91 -122 -1 -16 1 -22 4 -12 4 14 20 4 85
-55 44 -40 83 -78 86 -86 3 -9 -26 -44 -79 -93 -46 -43 -87 -78 -91 -79 -23
-1 2 -35 85 -118 l92 -92 183 183 c100 100 182 186 182 191 0 5 -82 91 -183
192 l-183 184 -90 -93z"/>
</g>
</svg>
